<svg xmlns="http://www.w3.org/2000/svg" version="1.1" width="100%" height="100%" viewBox="0 0 197.7 166" preserveAspectRatio="xMinYMax meet" data-hook="svg-icon-2"><path d="M79.3913 147.956C79.3913 141.977 74.5443 137.13 68.5652 137.13C62.5861 137.13 57.7391 141.977 57.7391 147.956C57.7391 153.935 62.5861 158.782 68.5652 158.782C74.5443 158.782 79.3913 153.935 79.3913 147.956ZM86.6087 147.956C86.6087 157.921 78.5303 166 68.5652 166C58.6001 166 50.5217 157.921 50.5217 147.956C50.5217 137.991 58.6001 129.913 68.5652 129.913C78.5303 129.913 86.6087 137.991 86.6087 147.956Z" fill="black"></path><path d="M144.348 147.956C144.348 141.977 139.501 137.13 133.522 137.13C127.543 137.13 122.696 141.977 122.696 147.956C122.696 153.935 127.543 158.782 133.522 158.782C139.501 158.782 144.348 153.935 144.348 147.956ZM151.565 147.956C151.565 157.921 143.487 166 133.522 166C123.557 166 115.478 157.921 115.478 147.956C115.478 137.991 123.557 129.913 133.522 129.913C143.487 129.913 151.565 137.991 151.565 147.956Z" fill="black"></path><path d="M19.1289 0C24.4107 0.00134637 28.9694 3.78942 29.8352 9.09222H29.8281L48.4496 120.877C49.3148 126.065 53.8766 129.913 59.1135 129.913H137.13V137.13H59.1135C50.3492 137.13 42.7757 130.731 41.3308 122.061L22.7094 10.2622V10.2552C22.4207 8.48681 20.9177 7.21872 19.1289 7.21739H0V0H19.1289Z" fill="black"></path><path d="M158.783 84.156V28.8696H166V84.156C165.999 89.453 162.204 93.8928 157.021 94.7706L157.028 94.7847L40.3229 115.351L39.0684 108.247L155.773 87.673L155.808 87.666C157.538 87.3772 158.782 85.921 158.783 84.156Z" fill="black"></path><text data-hook="items-count" class="uxskpx M846Y_" text-anchor="middle" x="95" y="25" dy=".48em">0</text></svg>
